<svg xmlns="http://www.w3.org/2000/svg" viewBox="0 0 24 24" fill="none">
  <rect width="24" height="24" rx="6" fill="#00a884"/>
  <path d="M12 4.5c-4.142 0-7.5 3.358-7.5 7.5 0 1.357.36 2.628.99 3.728L4.5 19.5l3.93-1.005A7.46 7.46 0 0012 19.5c4.142 0 7.5-3.358 7.5-7.5S16.142 4.5 12 4.5zm4.075 10.45c-.175.49-.99.92-1.385.99-.367.06-.81.085-1.305-.082a8.05 8.05 0 01-1.18-.435c-2.075-.9-3.43-2.99-3.535-3.13-.105-.14-.85-1.13-.85-2.155 0-1.025.535-1.53.725-1.74.19-.21.42-.26.56-.26.14 0 .28 0 .405.005.13.005.305-.05.475.36.175.42.595 1.45.645 1.555.05.105.085.225.015.365-.07.14-.105.225-.21.35-.105.125-.22.275-.315.37-.105.105-.215.215-.092.42.122.21.547.9 1.175 1.45.808.715 1.49.935 1.7 1.04.21.105.335.085.455-.05.122-.135.525-.61.665-.82.14-.21.28-.175.473-.105.192.07 1.225.575 1.435.68.21.105.35.155.4.245.05.09.05.525-.125 1.015z" fill="white"/>
</svg>
